# xmcd
#
# Track frame offsets: 
#        150
#        13843
#        23980
#        37360
#        49331
#        65197
#        78996
#        92515
#        104288
#        118465
#        133226
#        146976
#        158028
#        175404
#        187726
#        200295
#        212086
#        226622
#        242586
#        255137
#
# Disc length: 3576 seconds
#
# Revision: 6
# Processed by: cddbd v1.5.1PL2 Copyright (c) Steve Scherf et al.
# Submitted via: ExactAudioCopy v0.95a5
#
DISCID=1d0df614
DTITLE=Reba McEntire - Oklahoma Girl - Disc 1
DYEAR=1994
DGENRE=Country
TTITLE0=I Don't Want To Be A One Night Stand
TTITLE1=A Cowboy Like You
TTITLE2=(There's Nothing Like The Love) Between A Woman And A Man
TTITLE3=Right Time Of The Night
TTITLE4=Invitation To The Blues
TTITLE5=Last Night, Ev'ry Night
TTITLE6=Runaway Heart
TTITLE7=(I Still Long To Hold You) Now And Then
TTITLE8=Daddy
TTITLE9=The Blues Don't Care Who's Got 'Em
TTITLE10=Sweet Dreams
TTITLE11=My Heart Has A Mind Of Its Own
TTITLE12=I'm A Woman
TTITLE13=I Don't Think Love Ought To Be That Way
TTITLE14=(You Lift Me) Up To Heaven
TTITLE15=Tears On My Pillow
TTITLE16=Empty Arms
TTITLE17=Suddenly There's A Valley
TTITLE18=I Can See Forever In Your Eyes
TTITLE19=A Poor Man's Roses (Or A Rich Man's Gold)
EXTD=
EXTT0=
EXTT1=
EXTT2=
EXTT3=
EXTT4=
EXTT5=
EXTT6=
EXTT7=
EXTT8=
EXTT9=
EXTT10=
EXTT11=
EXTT12=
EXTT13=
EXTT14=
EXTT15=
EXTT16=
EXTT17=
EXTT18=
EXTT19=
PLAYORDER=
